<svg version="1.1" id="Layer_1" xmlns="http://www.w3.org/2000/svg" xmlns:xlink="http://www.w3.org/1999/xlink" x="0px" y="0px"
	 viewBox="0 0 241.3 262" style="enable-background:new 0 0 241.3 262;" xml:space="preserve">
<style type="text/css">
	.st0{fill:#47535B;}
</style>
<path class="st0" d="M210.3,50.4c-8.4-4.7-21.7,2.9-29.8,17l-14.7,25.5c-5.4,10.6-4.6,23.2,2.2,33l0.4,0.6
	c6.8,9.8,15.9,18.8,18.9,22c1.8,1.9,3.1,4.2,3.9,6.9c2.5,8.9-2.7,18.1-11.6,20.5c-8.9,2.5-18.1-2.7-20.5-11.6
	c-0.6-2.2-0.8-4.5-0.5-6.6c0.5-3.7-0.7-9.6-5.9-15.5c-5.2-5.9-16,5.2-19.4,16.6l-0.2,0.5c-3.5,11.4-5.7,21.3-5,22.2
	c0.4,0.6,0.8,1.2,1.1,1.8c4.9,9.2,1.4,20.5-7.8,25.4c-9.2,4.9-20.5,1.4-25.4-7.8c-4.9-9.2-1.4-20.5,7.8-25.4
	c0.4-0.2,0.8-0.4,1.2-0.6c0.7-0.3,2.7-5.1,4.4-10.7c1.7-5.6,3.1-10.2,3.1-10.2c0.2-0.6,0.3-1.2,0.5-1.8l9.3-33.1l-9.9,20.3
	c-1.2-3.9-3.1-4-7.4-1c-2.6,1.8-6.8,5.5-8.9,6.9c-3.9,2.8-7.1,8.2-8.9,11.5c-1,2-2.4,3.7-4.2,5.2c-7.1,5.8-17.5,4.7-23.3-2.4
	c-5.8-7.1-4.7-17.5,2.4-23.3c2.1-1.7,4.4-2.8,6.9-3.3c4.2-0.9,18.3-9.6,26.9-15.7c1.5-1.1,2.8-2.1,3.9-3.1l22.8-17.3l-19.9,10.7
	c0,0-2-0.2-4.5,0.1c-7.3,0.8-14.8,1.8-16.2,3.6c-0.8,1.1-1.8,2-3,2.9c-6.6,4.8-15.9,3.3-20.7-3.4c-4.8-6.6-3.3-15.9,3.4-20.7
	c2.7-2,5.9-2.9,9-2.8c5.3,0.1,19.3,3,31,0.9l3-0.5c11.7-2.1,25.7-12.3,31.3-22.8c0,0,5.5-9.6,12.2-21.5c6.7-11.8,6.2-24.8-1.1-29
	L134,7.2c-6.7-3.8-17.7-3.8-24.5,0L17.7,59C11,62.8,5.5,72.2,5.5,79.9V181c0,7.7,5.5,17.1,12.2,20.9l91.8,51.7
	c6.7,3.8,17.7,3.8,24.5,0l91.5-51.7c6.7-3.8,12.2-13.2,12.2-21V79.9c0-7.7-5.5-17.2-12.2-21C225.4,59,218.7,55.1,210.3,50.4z"/>
</svg>
